<svg width="1em" height="1em" viewBox="0 0 24 24" fill="none" xmlns="http://www.w3.org/2000/svg" font-size="24"><path fill-rule="evenodd" clip-rule="evenodd" d="M7.665 4.5h8.75c.92 0 1.667.746 1.667 1.667v8.748h-3.334a.625.625 0 0 0-.625.624v3.958H7.665c-.92 0-1.667-.747-1.667-1.667V6.167c0-.92.747-1.667 1.667-1.667Zm7.037 4.584a.625.625 0 1 0 0-1.25H9.298a.625.625 0 1 0 0 1.25h5.404Zm.625 2.918c0 .345-.28.625-.625.625H9.298a.625.625 0 0 1 0-1.25h5.404c.345 0 .625.28.625.625Zm-4.363 4.158a.625.625 0 1 0 0-1.25H9.298a.625.625 0 1 0 0 1.25h1.666Z" fill="currentColor"></path><path d="M15.373 16.164h2.157l-2.107 2.693-.05.06v-2.753Z" fill="currentColor"></path></svg>