<svg width="24" height="24" viewBox="0 0 24 24" fill="none" xmlns="http://www.w3.org/2000/svg" class="RnFdIj9aTlmgAUQUYCyV"><path fill-rule="evenodd" clip-rule="evenodd" d="M4.765 12.025V12c0-1.083-.474-1.46-.854-1.764l-.12-.096c-.458-.381-.914-.938-.399-1.894.18-.333.59-1.04.882-1.544l.264-.454c.28-.485.774-1.076 1.878-.618.72.299 1.313.382 2.057-.108.725-.478.834-1.129.906-1.56V3.96c.094-.536.241-1.373 1.48-1.373H13.141c1.24 0 1.392.869 1.465 1.287v.002c.087.518.196 1.17.92 1.646.745.491 1.34.405 2.057.108 1.106-.457 1.6.133 1.878.617l.253.437.015.027.004.007c.292.503.696 1.199.874 1.526.516.958.059 1.516-.397 1.895l-.12.096-.002.002c-.377.3-.847.675-.853 1.743V12c0 1.085.474 1.462.855 1.765l.118.095c.457.379.914.936.4 1.894a77.01 77.01 0 01-.887 1.549l-.26.45c-.278.484-.774 1.073-1.878.618-.716-.299-1.309-.386-2.057.107-.723.476-.832 1.127-.905 1.559v.002c-.088.505-.24 1.374-1.48 1.374h-2.284c-1.237 0-1.385-.837-1.464-1.286l-.001-.004c-.087-.517-.196-1.168-.92-1.645-.746-.492-1.338-.406-2.056-.108-1.102.457-1.6-.132-1.877-.615l-.262-.452a80.365 80.365 0 01-.886-1.548c-.515-.957-.058-1.515.398-1.894l.119-.096c.378-.301.848-.675.856-1.74zm7.226-7.938h-1.113l-.008.046c-.097.59-.299 1.804-1.57 2.64-1.386.914-2.577.608-3.459.243a.059.059 0 00-.012-.005l-.247.427c-.286.49-.692 1.19-.869 1.518l.036.03.093.075.002.001c.459.366 1.41 1.123 1.42 2.909V12c0 1.807-.958 2.57-1.42 2.938l-.001.001-.095.076a.571.571 0 00-.033.028l-.001.001c.17.316.553.976.836 1.464l.28.481.004-.002h.003l.005-.002c.88-.369 2.072-.673 3.458.241 1.27.837 1.473 2.05 1.559 2.569l.004.026.016.092h2.242l.003-.02v-.004l.001-.002.003-.019v-.004c.102-.597.307-1.804 1.573-2.638 1.385-.915 2.576-.61 3.46-.241.002.002.005.003.007.003l.002.001.294-.506c.281-.485.655-1.128.823-1.439l-.012-.01-.023-.019-.094-.076-.002-.001c-.46-.366-1.411-1.125-1.42-2.914a.92.92 0 010-.024c0-1.807.959-2.57 1.42-2.938h.002l.095-.077a.55.55 0 01.013-.012h.002a.305.305 0 00.019-.018 80.647 80.647 0 00-.87-1.518l-.246-.426a.055.055 0 00-.012.004c-.885.366-2.074.67-3.458-.24-1.268-.837-1.472-2.048-1.56-2.565l-.012-.076-.007-.047H11.99zm0 5.91a1.88 1.88 0 00-1.82 1.396c-.13.487-.064.996.187 1.432.252.438.658.75 1.146.88.486.133.994.066 1.43-.187.438-.25.75-.658.882-1.145a1.889 1.889 0 00-1.825-2.376zm.008 5.276a3.404 3.404 0 01-2.941-1.698 3.368 3.368 0 01-.335-2.571 3.36 3.36 0 011.58-2.054 3.39 3.39 0 014.626 1.244c.452.783.57 1.696.335 2.57a3.36 3.36 0 01-1.581 2.055 3.352 3.352 0 01-1.684.454z" fill="currentColor"></path></svg>